<mxfile host="app.diagrams.net" agent="Mozilla/5.0 (Windows NT 10.0; Win64; x64) AppleWebKit/537.36 (KHTML, like Gecko) Chrome/129.0.0.0 Safari/537.36" version="24.7.17">
  <diagram name="Page-1" id="S33h1JTLpl0X4T2cpxyN">
    <mxGraphModel dx="4540" dy="2000" grid="1" gridSize="10" guides="1" tooltips="1" connect="1" arrows="1" fold="1" page="1" pageScale="1" pageWidth="827" pageHeight="1169" math="0" shadow="0">
      <root>
        <mxCell id="0" />
        <mxCell id="1" parent="0" />
        <mxCell id="kE_F-PJmoGisJRqgQ28E-1" value="Vendor" style="rounded=1;arcSize=10;whiteSpace=wrap;html=1;align=center;" vertex="1" parent="1">
          <mxGeometry x="-20" y="530" width="100" height="40" as="geometry" />
        </mxCell>
        <mxCell id="kE_F-PJmoGisJRqgQ28E-2" value="Product" style="rounded=1;arcSize=10;whiteSpace=wrap;html=1;align=center;" vertex="1" parent="1">
          <mxGeometry x="510" y="160" width="100" height="40" as="geometry" />
        </mxCell>
        <mxCell id="kE_F-PJmoGisJRqgQ28E-3" value="Order" style="rounded=1;arcSize=10;whiteSpace=wrap;html=1;align=center;" vertex="1" parent="1">
          <mxGeometry x="-510" y="160" width="100" height="40" as="geometry" />
        </mxCell>
        <mxCell id="kE_F-PJmoGisJRqgQ28E-4" value="Shipping" style="rounded=1;arcSize=10;whiteSpace=wrap;html=1;align=center;" vertex="1" parent="1">
          <mxGeometry x="510" y="530" width="100" height="40" as="geometry" />
        </mxCell>
        <mxCell id="kE_F-PJmoGisJRqgQ28E-5" value="Customer" style="rounded=1;arcSize=10;whiteSpace=wrap;html=1;align=center;" vertex="1" parent="1">
          <mxGeometry x="-510" y="530" width="100" height="40" as="geometry" />
        </mxCell>
        <mxCell id="kE_F-PJmoGisJRqgQ28E-6" value="Payment" style="rounded=1;arcSize=10;whiteSpace=wrap;html=1;align=center;" vertex="1" parent="1">
          <mxGeometry x="-20" y="160" width="100" height="40" as="geometry" />
        </mxCell>
        <mxCell id="kE_F-PJmoGisJRqgQ28E-8" value="VendorID" style="ellipse;whiteSpace=wrap;html=1;align=center;fontStyle=4;" vertex="1" parent="1">
          <mxGeometry x="30" y="630" width="100" height="40" as="geometry" />
        </mxCell>
        <mxCell id="kE_F-PJmoGisJRqgQ28E-9" value="VName" style="ellipse;whiteSpace=wrap;html=1;align=center;" vertex="1" parent="1">
          <mxGeometry x="-90" y="630" width="100" height="40" as="geometry" />
        </mxCell>
        <mxCell id="kE_F-PJmoGisJRqgQ28E-10" value="VEmail" style="ellipse;whiteSpace=wrap;html=1;align=center;" vertex="1" parent="1">
          <mxGeometry x="110" y="570" width="100" height="40" as="geometry" />
        </mxCell>
        <mxCell id="kE_F-PJmoGisJRqgQ28E-11" value="VPhone" style="ellipse;shape=doubleEllipse;margin=3;whiteSpace=wrap;html=1;align=center;" vertex="1" parent="1">
          <mxGeometry x="-160" y="570" width="100" height="40" as="geometry" />
        </mxCell>
        <mxCell id="kE_F-PJmoGisJRqgQ28E-13" value="Name" style="ellipse;whiteSpace=wrap;html=1;align=center;" vertex="1" parent="1">
          <mxGeometry x="540" y="60" width="100" height="40" as="geometry" />
        </mxCell>
        <mxCell id="kE_F-PJmoGisJRqgQ28E-14" value="&lt;code&gt;ProductID&lt;/code&gt;" style="ellipse;whiteSpace=wrap;html=1;align=center;fontStyle=4;" vertex="1" parent="1">
          <mxGeometry x="410" y="70" width="100" height="40" as="geometry" />
        </mxCell>
        <mxCell id="kE_F-PJmoGisJRqgQ28E-15" value="Description" style="ellipse;whiteSpace=wrap;html=1;align=center;" vertex="1" parent="1">
          <mxGeometry x="680" y="100" width="100" height="40" as="geometry" />
        </mxCell>
        <mxCell id="kE_F-PJmoGisJRqgQ28E-16" value="Price" style="ellipse;whiteSpace=wrap;html=1;align=center;" vertex="1" parent="1">
          <mxGeometry x="710" y="170" width="100" height="40" as="geometry" />
        </mxCell>
        <mxCell id="kE_F-PJmoGisJRqgQ28E-17" value="StockQuantity" style="ellipse;whiteSpace=wrap;html=1;align=center;" vertex="1" parent="1">
          <mxGeometry x="690" y="240" width="100" height="40" as="geometry" />
        </mxCell>
        <mxCell id="kE_F-PJmoGisJRqgQ28E-20" value="" style="endArrow=none;html=1;rounded=0;entryX=0.25;entryY=0;entryDx=0;entryDy=0;" edge="1" parent="1" target="kE_F-PJmoGisJRqgQ28E-2">
          <mxGeometry relative="1" as="geometry">
            <mxPoint x="480" y="110" as="sourcePoint" />
            <mxPoint x="640" y="110" as="targetPoint" />
          </mxGeometry>
        </mxCell>
        <mxCell id="kE_F-PJmoGisJRqgQ28E-24" value="" style="endArrow=none;html=1;rounded=0;entryX=0.75;entryY=0;entryDx=0;entryDy=0;exitX=0.5;exitY=1;exitDx=0;exitDy=0;" edge="1" parent="1" source="kE_F-PJmoGisJRqgQ28E-13" target="kE_F-PJmoGisJRqgQ28E-2">
          <mxGeometry relative="1" as="geometry">
            <mxPoint x="600" y="100" as="sourcePoint" />
            <mxPoint x="760" y="100" as="targetPoint" />
          </mxGeometry>
        </mxCell>
        <mxCell id="kE_F-PJmoGisJRqgQ28E-25" value="" style="endArrow=none;html=1;rounded=0;exitX=1;exitY=0.25;exitDx=0;exitDy=0;" edge="1" parent="1" source="kE_F-PJmoGisJRqgQ28E-2">
          <mxGeometry relative="1" as="geometry">
            <mxPoint x="530" y="130" as="sourcePoint" />
            <mxPoint x="690" y="130" as="targetPoint" />
          </mxGeometry>
        </mxCell>
        <mxCell id="kE_F-PJmoGisJRqgQ28E-26" value="" style="endArrow=none;html=1;rounded=0;exitX=1;exitY=0.75;exitDx=0;exitDy=0;" edge="1" parent="1" source="kE_F-PJmoGisJRqgQ28E-2">
          <mxGeometry relative="1" as="geometry">
            <mxPoint x="620" y="198.67" as="sourcePoint" />
            <mxPoint x="710" y="190" as="targetPoint" />
          </mxGeometry>
        </mxCell>
        <mxCell id="kE_F-PJmoGisJRqgQ28E-27" value="" style="endArrow=none;html=1;rounded=0;entryX=0;entryY=0;entryDx=0;entryDy=0;" edge="1" parent="1" target="kE_F-PJmoGisJRqgQ28E-17">
          <mxGeometry relative="1" as="geometry">
            <mxPoint x="570" y="200" as="sourcePoint" />
            <mxPoint x="730" y="200" as="targetPoint" />
          </mxGeometry>
        </mxCell>
        <mxCell id="kE_F-PJmoGisJRqgQ28E-29" value="&lt;code&gt;CustomerID&lt;/code&gt;" style="ellipse;whiteSpace=wrap;html=1;align=center;fontStyle=4;" vertex="1" parent="1">
          <mxGeometry x="-510" y="620" width="100" height="40" as="geometry" />
        </mxCell>
        <mxCell id="kE_F-PJmoGisJRqgQ28E-30" value="CName" style="ellipse;whiteSpace=wrap;html=1;align=center;" vertex="1" parent="1">
          <mxGeometry x="-640" y="590" width="100" height="40" as="geometry" />
        </mxCell>
        <mxCell id="kE_F-PJmoGisJRqgQ28E-31" value="CEmail" style="ellipse;whiteSpace=wrap;html=1;align=center;" vertex="1" parent="1">
          <mxGeometry x="-380" y="610" width="100" height="40" as="geometry" />
        </mxCell>
        <mxCell id="kE_F-PJmoGisJRqgQ28E-32" value="CPhone" style="ellipse;whiteSpace=wrap;html=1;align=center;" vertex="1" parent="1">
          <mxGeometry x="-630" y="680" width="100" height="40" as="geometry" />
        </mxCell>
        <mxCell id="kE_F-PJmoGisJRqgQ28E-33" value="ShippingAddress" style="ellipse;whiteSpace=wrap;html=1;align=center;" vertex="1" parent="1">
          <mxGeometry x="-410" y="700" width="100" height="40" as="geometry" />
        </mxCell>
        <mxCell id="kE_F-PJmoGisJRqgQ28E-36" value="TotalAmount" style="ellipse;whiteSpace=wrap;html=1;align=center;" vertex="1" parent="1">
          <mxGeometry x="-543" y="50" width="100" height="40" as="geometry" />
        </mxCell>
        <mxCell id="kE_F-PJmoGisJRqgQ28E-37" value="OrderDate" style="ellipse;whiteSpace=wrap;html=1;align=center;" vertex="1" parent="1">
          <mxGeometry x="-660" y="70" width="100" height="40" as="geometry" />
        </mxCell>
        <mxCell id="kE_F-PJmoGisJRqgQ28E-38" value="&lt;code&gt;OrderID&lt;/code&gt;" style="ellipse;whiteSpace=wrap;html=1;align=center;fontStyle=4;" vertex="1" parent="1">
          <mxGeometry x="-700" y="140" width="100" height="40" as="geometry" />
        </mxCell>
        <mxCell id="kE_F-PJmoGisJRqgQ28E-41" value="PaymentMethod" style="ellipse;whiteSpace=wrap;html=1;align=center;" vertex="1" parent="1">
          <mxGeometry x="90" y="40" width="100" height="40" as="geometry" />
        </mxCell>
        <mxCell id="kE_F-PJmoGisJRqgQ28E-42" value="Amount" style="ellipse;whiteSpace=wrap;html=1;align=center;" vertex="1" parent="1">
          <mxGeometry x="-40" y="30" width="100" height="40" as="geometry" />
        </mxCell>
        <mxCell id="kE_F-PJmoGisJRqgQ28E-43" value="&lt;span style=&quot;font-family: monospace;&quot;&gt;PaymentID&lt;/span&gt;" style="ellipse;whiteSpace=wrap;html=1;align=center;fontStyle=4;" vertex="1" parent="1">
          <mxGeometry x="-140" y="80" width="100" height="40" as="geometry" />
        </mxCell>
        <mxCell id="kE_F-PJmoGisJRqgQ28E-44" value="PaymentDate" style="ellipse;whiteSpace=wrap;html=1;align=center;" vertex="1" parent="1">
          <mxGeometry x="140" y="100" width="100" height="40" as="geometry" />
        </mxCell>
        <mxCell id="kE_F-PJmoGisJRqgQ28E-45" value="&lt;code&gt;ShippingID&lt;/code&gt;" style="ellipse;whiteSpace=wrap;html=1;align=center;fontStyle=4;" vertex="1" parent="1">
          <mxGeometry x="500" y="640" width="100" height="40" as="geometry" />
        </mxCell>
        <mxCell id="kE_F-PJmoGisJRqgQ28E-46" value="&lt;code&gt;ShippingStatus&lt;/code&gt;" style="ellipse;whiteSpace=wrap;html=1;align=center;" vertex="1" parent="1">
          <mxGeometry x="660" y="610" width="100" height="40" as="geometry" />
        </mxCell>
        <mxCell id="kE_F-PJmoGisJRqgQ28E-47" value="" style="endArrow=none;html=1;rounded=0;entryX=0.5;entryY=0;entryDx=0;entryDy=0;" edge="1" parent="1" target="kE_F-PJmoGisJRqgQ28E-45">
          <mxGeometry relative="1" as="geometry">
            <mxPoint x="560" y="570" as="sourcePoint" />
            <mxPoint x="720" y="570" as="targetPoint" />
          </mxGeometry>
        </mxCell>
        <mxCell id="kE_F-PJmoGisJRqgQ28E-48" value="" style="endArrow=none;html=1;rounded=0;entryX=0;entryY=0;entryDx=0;entryDy=0;exitX=0.75;exitY=1;exitDx=0;exitDy=0;" edge="1" parent="1" source="kE_F-PJmoGisJRqgQ28E-4" target="kE_F-PJmoGisJRqgQ28E-46">
          <mxGeometry relative="1" as="geometry">
            <mxPoint x="570" y="580" as="sourcePoint" />
            <mxPoint x="560" y="650" as="targetPoint" />
          </mxGeometry>
        </mxCell>
        <mxCell id="kE_F-PJmoGisJRqgQ28E-49" value="" style="endArrow=none;html=1;rounded=0;exitX=1;exitY=0.5;exitDx=0;exitDy=0;" edge="1" parent="1" source="kE_F-PJmoGisJRqgQ28E-11">
          <mxGeometry relative="1" as="geometry">
            <mxPoint x="-180" y="568.1800000000001" as="sourcePoint" />
            <mxPoint x="-20" y="568.1800000000001" as="targetPoint" />
          </mxGeometry>
        </mxCell>
        <mxCell id="kE_F-PJmoGisJRqgQ28E-50" value="" style="endArrow=none;html=1;rounded=0;exitX=0.5;exitY=0;exitDx=0;exitDy=0;entryX=0.25;entryY=1;entryDx=0;entryDy=0;" edge="1" parent="1" source="kE_F-PJmoGisJRqgQ28E-9" target="kE_F-PJmoGisJRqgQ28E-1">
          <mxGeometry relative="1" as="geometry">
            <mxPoint x="-50" y="600" as="sourcePoint" />
            <mxPoint x="-10" y="578.1800000000001" as="targetPoint" />
          </mxGeometry>
        </mxCell>
        <mxCell id="kE_F-PJmoGisJRqgQ28E-51" value="" style="endArrow=none;html=1;rounded=0;exitX=0.307;exitY=-0.07;exitDx=0;exitDy=0;entryX=0.5;entryY=1;entryDx=0;entryDy=0;exitPerimeter=0;" edge="1" parent="1" source="kE_F-PJmoGisJRqgQ28E-8" target="kE_F-PJmoGisJRqgQ28E-1">
          <mxGeometry relative="1" as="geometry">
            <mxPoint x="-40" y="610" as="sourcePoint" />
            <mxPoint y="588.1800000000001" as="targetPoint" />
          </mxGeometry>
        </mxCell>
        <mxCell id="kE_F-PJmoGisJRqgQ28E-52" value="" style="endArrow=none;html=1;rounded=0;exitX=0;exitY=0;exitDx=0;exitDy=0;entryX=1;entryY=0.75;entryDx=0;entryDy=0;" edge="1" parent="1" source="kE_F-PJmoGisJRqgQ28E-10" target="kE_F-PJmoGisJRqgQ28E-1">
          <mxGeometry relative="1" as="geometry">
            <mxPoint x="-30" y="620" as="sourcePoint" />
            <mxPoint x="10" y="598.1800000000001" as="targetPoint" />
          </mxGeometry>
        </mxCell>
        <mxCell id="kE_F-PJmoGisJRqgQ28E-53" value="" style="endArrow=none;html=1;rounded=0;exitX=1;exitY=0;exitDx=0;exitDy=0;" edge="1" parent="1" source="kE_F-PJmoGisJRqgQ28E-30">
          <mxGeometry relative="1" as="geometry">
            <mxPoint x="-640" y="570" as="sourcePoint" />
            <mxPoint x="-480" y="570" as="targetPoint" />
          </mxGeometry>
        </mxCell>
        <mxCell id="kE_F-PJmoGisJRqgQ28E-54" value="" style="endArrow=none;html=1;rounded=0;exitX=0.725;exitY=-0.002;exitDx=0;exitDy=0;entryX=0.5;entryY=1;entryDx=0;entryDy=0;exitPerimeter=0;" edge="1" parent="1" source="kE_F-PJmoGisJRqgQ28E-32" target="kE_F-PJmoGisJRqgQ28E-5">
          <mxGeometry relative="1" as="geometry">
            <mxPoint x="-545" y="606" as="sourcePoint" />
            <mxPoint x="-470" y="580" as="targetPoint" />
          </mxGeometry>
        </mxCell>
        <mxCell id="kE_F-PJmoGisJRqgQ28E-55" value="" style="endArrow=none;html=1;rounded=0;exitX=0.5;exitY=0;exitDx=0;exitDy=0;" edge="1" parent="1" source="kE_F-PJmoGisJRqgQ28E-29">
          <mxGeometry relative="1" as="geometry">
            <mxPoint x="-535" y="616" as="sourcePoint" />
            <mxPoint x="-450" y="570" as="targetPoint" />
          </mxGeometry>
        </mxCell>
        <mxCell id="kE_F-PJmoGisJRqgQ28E-56" value="" style="endArrow=none;html=1;rounded=0;exitX=0.5;exitY=0;exitDx=0;exitDy=0;entryX=1;entryY=1;entryDx=0;entryDy=0;" edge="1" parent="1" source="kE_F-PJmoGisJRqgQ28E-31" target="kE_F-PJmoGisJRqgQ28E-5">
          <mxGeometry relative="1" as="geometry">
            <mxPoint x="-525" y="626" as="sourcePoint" />
            <mxPoint x="-450" y="600" as="targetPoint" />
          </mxGeometry>
        </mxCell>
        <mxCell id="kE_F-PJmoGisJRqgQ28E-57" value="" style="endArrow=none;html=1;rounded=0;exitX=0.38;exitY=-0.048;exitDx=0;exitDy=0;entryX=0.75;entryY=1;entryDx=0;entryDy=0;exitPerimeter=0;" edge="1" parent="1" source="kE_F-PJmoGisJRqgQ28E-33" target="kE_F-PJmoGisJRqgQ28E-5">
          <mxGeometry relative="1" as="geometry">
            <mxPoint x="-515" y="636" as="sourcePoint" />
            <mxPoint x="-440" y="610" as="targetPoint" />
          </mxGeometry>
        </mxCell>
        <mxCell id="kE_F-PJmoGisJRqgQ28E-58" value="" style="endArrow=none;html=1;rounded=0;exitX=1;exitY=0.5;exitDx=0;exitDy=0;" edge="1" parent="1" source="kE_F-PJmoGisJRqgQ28E-38">
          <mxGeometry relative="1" as="geometry">
            <mxPoint x="-670" y="179.23" as="sourcePoint" />
            <mxPoint x="-510" y="179.23" as="targetPoint" />
          </mxGeometry>
        </mxCell>
        <mxCell id="kE_F-PJmoGisJRqgQ28E-59" value="" style="endArrow=none;html=1;rounded=0;exitX=1;exitY=1;exitDx=0;exitDy=0;" edge="1" parent="1" source="kE_F-PJmoGisJRqgQ28E-37">
          <mxGeometry relative="1" as="geometry">
            <mxPoint x="-589" y="182" as="sourcePoint" />
            <mxPoint x="-510" y="160" as="targetPoint" />
          </mxGeometry>
        </mxCell>
        <mxCell id="kE_F-PJmoGisJRqgQ28E-60" value="" style="endArrow=none;html=1;rounded=0;exitX=0.5;exitY=1;exitDx=0;exitDy=0;entryX=0.5;entryY=0;entryDx=0;entryDy=0;" edge="1" parent="1" source="kE_F-PJmoGisJRqgQ28E-36" target="kE_F-PJmoGisJRqgQ28E-3">
          <mxGeometry relative="1" as="geometry">
            <mxPoint x="-579" y="192" as="sourcePoint" />
            <mxPoint x="-490" y="199.23" as="targetPoint" />
          </mxGeometry>
        </mxCell>
        <mxCell id="kE_F-PJmoGisJRqgQ28E-61" value="" style="endArrow=none;html=1;rounded=0;entryX=0;entryY=0;entryDx=0;entryDy=0;exitX=1;exitY=1;exitDx=0;exitDy=0;" edge="1" parent="1" source="kE_F-PJmoGisJRqgQ28E-43" target="kE_F-PJmoGisJRqgQ28E-6">
          <mxGeometry relative="1" as="geometry">
            <mxPoint x="-350" y="310" as="sourcePoint" />
            <mxPoint x="-190" y="310" as="targetPoint" />
          </mxGeometry>
        </mxCell>
        <mxCell id="kE_F-PJmoGisJRqgQ28E-62" value="" style="endArrow=none;html=1;rounded=0;exitX=0.5;exitY=1;exitDx=0;exitDy=0;entryX=0.375;entryY=0.002;entryDx=0;entryDy=0;entryPerimeter=0;" edge="1" parent="1" source="kE_F-PJmoGisJRqgQ28E-42" target="kE_F-PJmoGisJRqgQ28E-6">
          <mxGeometry relative="1" as="geometry">
            <mxPoint x="-50" y="152.77" as="sourcePoint" />
            <mxPoint x="39" y="160" as="targetPoint" />
          </mxGeometry>
        </mxCell>
        <mxCell id="kE_F-PJmoGisJRqgQ28E-63" value="" style="endArrow=none;html=1;rounded=0;exitX=0.913;exitY=0.04;exitDx=0;exitDy=0;exitPerimeter=0;entryX=0.259;entryY=0.867;entryDx=0;entryDy=0;entryPerimeter=0;" edge="1" parent="1" source="kE_F-PJmoGisJRqgQ28E-6" target="kE_F-PJmoGisJRqgQ28E-41">
          <mxGeometry relative="1" as="geometry">
            <mxPoint x="10" y="90" as="sourcePoint" />
            <mxPoint x="99" y="97.22999999999999" as="targetPoint" />
          </mxGeometry>
        </mxCell>
        <mxCell id="kE_F-PJmoGisJRqgQ28E-64" value="" style="endArrow=none;html=1;rounded=0;exitX=1;exitY=0.5;exitDx=0;exitDy=0;entryX=0;entryY=1;entryDx=0;entryDy=0;" edge="1" parent="1" source="kE_F-PJmoGisJRqgQ28E-6" target="kE_F-PJmoGisJRqgQ28E-44">
          <mxGeometry relative="1" as="geometry">
            <mxPoint x="80" y="132.76999999999998" as="sourcePoint" />
            <mxPoint x="169" y="140" as="targetPoint" />
          </mxGeometry>
        </mxCell>
        <mxCell id="kE_F-PJmoGisJRqgQ28E-65" value="" style="endArrow=none;html=1;rounded=0;entryX=1;entryY=0.5;entryDx=0;entryDy=0;" edge="1" parent="1" target="kE_F-PJmoGisJRqgQ28E-67">
          <mxGeometry relative="1" as="geometry">
            <mxPoint x="510" y="198.45999999999998" as="sourcePoint" />
            <mxPoint x="370" y="300" as="targetPoint" />
          </mxGeometry>
        </mxCell>
        <mxCell id="kE_F-PJmoGisJRqgQ28E-66" value="1" style="resizable=0;html=1;whiteSpace=wrap;align=right;verticalAlign=bottom;" connectable="0" vertex="1" parent="kE_F-PJmoGisJRqgQ28E-65">
          <mxGeometry x="1" relative="1" as="geometry" />
        </mxCell>
        <mxCell id="kE_F-PJmoGisJRqgQ28E-67" value="Buy" style="shape=rhombus;perimeter=rhombusPerimeter;whiteSpace=wrap;html=1;align=center;" vertex="1" parent="1">
          <mxGeometry x="320" y="350" width="120" height="60" as="geometry" />
        </mxCell>
        <mxCell id="kE_F-PJmoGisJRqgQ28E-68" value="" style="endArrow=none;html=1;rounded=0;exitX=1;exitY=0;exitDx=0;exitDy=0;entryX=0;entryY=0.5;entryDx=0;entryDy=0;" edge="1" parent="1" source="kE_F-PJmoGisJRqgQ28E-1" target="kE_F-PJmoGisJRqgQ28E-67">
          <mxGeometry relative="1" as="geometry">
            <mxPoint x="100" y="299.23" as="sourcePoint" />
            <mxPoint x="260" y="299.23" as="targetPoint" />
          </mxGeometry>
        </mxCell>
        <mxCell id="kE_F-PJmoGisJRqgQ28E-69" value="N" style="resizable=0;html=1;whiteSpace=wrap;align=right;verticalAlign=bottom;" connectable="0" vertex="1" parent="kE_F-PJmoGisJRqgQ28E-68">
          <mxGeometry x="1" relative="1" as="geometry" />
        </mxCell>
        <mxCell id="kE_F-PJmoGisJRqgQ28E-70" value="" style="endArrow=none;html=1;rounded=0;exitX=0.5;exitY=0;exitDx=0;exitDy=0;" edge="1" parent="1" source="kE_F-PJmoGisJRqgQ28E-5" target="kE_F-PJmoGisJRqgQ28E-72">
          <mxGeometry relative="1" as="geometry">
            <mxPoint x="-420" y="260" as="sourcePoint" />
            <mxPoint x="-460" y="380" as="targetPoint" />
          </mxGeometry>
        </mxCell>
        <mxCell id="kE_F-PJmoGisJRqgQ28E-71" value="1" style="resizable=0;html=1;whiteSpace=wrap;align=right;verticalAlign=bottom;" connectable="0" vertex="1" parent="kE_F-PJmoGisJRqgQ28E-70">
          <mxGeometry x="1" relative="1" as="geometry" />
        </mxCell>
        <mxCell id="kE_F-PJmoGisJRqgQ28E-72" value="can place" style="shape=rhombus;perimeter=rhombusPerimeter;whiteSpace=wrap;html=1;align=center;" vertex="1" parent="1">
          <mxGeometry x="-520" y="350" width="120" height="60" as="geometry" />
        </mxCell>
        <mxCell id="kE_F-PJmoGisJRqgQ28E-73" value="" style="endArrow=none;html=1;rounded=0;exitX=0.5;exitY=0;exitDx=0;exitDy=0;entryX=0.5;entryY=1;entryDx=0;entryDy=0;" edge="1" parent="1" source="kE_F-PJmoGisJRqgQ28E-72" target="kE_F-PJmoGisJRqgQ28E-3">
          <mxGeometry relative="1" as="geometry">
            <mxPoint x="-420" y="260" as="sourcePoint" />
            <mxPoint x="-260" y="260" as="targetPoint" />
          </mxGeometry>
        </mxCell>
        <mxCell id="kE_F-PJmoGisJRqgQ28E-74" value="N" style="resizable=0;html=1;whiteSpace=wrap;align=right;verticalAlign=bottom;" connectable="0" vertex="1" parent="kE_F-PJmoGisJRqgQ28E-73">
          <mxGeometry x="1" relative="1" as="geometry" />
        </mxCell>
        <mxCell id="kE_F-PJmoGisJRqgQ28E-75" value="" style="endArrow=none;html=1;rounded=0;" edge="1" parent="1" target="kE_F-PJmoGisJRqgQ28E-77">
          <mxGeometry relative="1" as="geometry">
            <mxPoint x="-410" y="178" as="sourcePoint" />
            <mxPoint x="-250" y="178" as="targetPoint" />
          </mxGeometry>
        </mxCell>
        <mxCell id="kE_F-PJmoGisJRqgQ28E-76" value="1" style="resizable=0;html=1;whiteSpace=wrap;align=right;verticalAlign=bottom;" connectable="0" vertex="1" parent="kE_F-PJmoGisJRqgQ28E-75">
          <mxGeometry x="1" relative="1" as="geometry" />
        </mxCell>
        <mxCell id="kE_F-PJmoGisJRqgQ28E-77" value="has " style="shape=rhombus;perimeter=rhombusPerimeter;whiteSpace=wrap;html=1;align=center;" vertex="1" parent="1">
          <mxGeometry x="-290" y="150" width="120" height="60" as="geometry" />
        </mxCell>
        <mxCell id="kE_F-PJmoGisJRqgQ28E-78" value="" style="endArrow=none;html=1;rounded=0;entryX=0;entryY=0.5;entryDx=0;entryDy=0;" edge="1" parent="1" target="kE_F-PJmoGisJRqgQ28E-6">
          <mxGeometry relative="1" as="geometry">
            <mxPoint x="-170" y="180" as="sourcePoint" />
            <mxPoint x="-40" y="178" as="targetPoint" />
          </mxGeometry>
        </mxCell>
        <mxCell id="kE_F-PJmoGisJRqgQ28E-79" value="1" style="resizable=0;html=1;whiteSpace=wrap;align=right;verticalAlign=bottom;" connectable="0" vertex="1" parent="kE_F-PJmoGisJRqgQ28E-78">
          <mxGeometry x="1" relative="1" as="geometry" />
        </mxCell>
        <mxCell id="kE_F-PJmoGisJRqgQ28E-80" value="" style="endArrow=none;html=1;rounded=0;exitX=1;exitY=1;exitDx=0;exitDy=0;" edge="1" parent="1" source="kE_F-PJmoGisJRqgQ28E-3" target="kE_F-PJmoGisJRqgQ28E-82">
          <mxGeometry relative="1" as="geometry">
            <mxPoint x="-380" y="230" as="sourcePoint" />
            <mxPoint x="10" y="390" as="targetPoint" />
          </mxGeometry>
        </mxCell>
        <mxCell id="kE_F-PJmoGisJRqgQ28E-81" value="1" style="resizable=0;html=1;whiteSpace=wrap;align=right;verticalAlign=bottom;" connectable="0" vertex="1" parent="kE_F-PJmoGisJRqgQ28E-80">
          <mxGeometry x="1" relative="1" as="geometry" />
        </mxCell>
        <mxCell id="kE_F-PJmoGisJRqgQ28E-82" value="has " style="shape=rhombus;perimeter=rhombusPerimeter;whiteSpace=wrap;html=1;align=center;" vertex="1" parent="1">
          <mxGeometry x="-30" y="350" width="120" height="60" as="geometry" />
        </mxCell>
        <mxCell id="kE_F-PJmoGisJRqgQ28E-83" value="" style="endArrow=none;html=1;rounded=0;entryX=0;entryY=0.25;entryDx=0;entryDy=0;" edge="1" parent="1" source="kE_F-PJmoGisJRqgQ28E-82" target="kE_F-PJmoGisJRqgQ28E-4">
          <mxGeometry relative="1" as="geometry">
            <mxPoint x="80" y="400" as="sourcePoint" />
            <mxPoint x="240" y="400" as="targetPoint" />
          </mxGeometry>
        </mxCell>
        <mxCell id="kE_F-PJmoGisJRqgQ28E-84" value="1" style="resizable=0;html=1;whiteSpace=wrap;align=right;verticalAlign=bottom;" connectable="0" vertex="1" parent="kE_F-PJmoGisJRqgQ28E-83">
          <mxGeometry x="1" relative="1" as="geometry" />
        </mxCell>
      </root>
    </mxGraphModel>
  </diagram>
</mxfile>
